<svg width="142" height="32" viewBox="0 0 142 32" fill="none" xmlns="http://www.w3.org/2000/svg">
<path d="M5.85227 10.5881V7.54545H20.1875V10.5881H14.8438V25H11.196V10.5881H5.85227ZM26.4964 25.2557C25.1726 25.2557 24.0277 24.9744 23.0618 24.4119C22.1016 23.8437 21.3601 23.054 20.8374 22.0426C20.3146 21.0256 20.0533 19.8466 20.0533 18.5057C20.0533 17.1534 20.3146 15.9716 20.8374 14.9602C21.3601 13.9432 22.1016 13.1534 23.0618 12.5909C24.0277 12.0227 25.1726 11.7386 26.4964 11.7386C27.8203 11.7386 28.9624 12.0227 29.9226 12.5909C30.8885 13.1534 31.6328 13.9432 32.1555 14.9602C32.6783 15.9716 32.9396 17.1534 32.9396 18.5057C32.9396 19.8466 32.6783 21.0256 32.1555 22.0426C31.6328 23.054 30.8885 23.8437 29.9226 24.4119C28.9624 24.9744 27.8203 25.2557 26.4964 25.2557ZM26.5135 22.4432C27.1158 22.4432 27.6186 22.2727 28.022 21.9318C28.4254 21.5852 28.7294 21.1136 28.9339 20.517C29.1442 19.9205 29.2493 19.2415 29.2493 18.4801C29.2493 17.7188 29.1442 17.0398 28.9339 16.4432C28.7294 15.8466 28.4254 15.375 28.022 15.0284C27.6186 14.6818 27.1158 14.5085 26.5135 14.5085C25.9055 14.5085 25.3942 14.6818 24.9794 15.0284C24.5703 15.375 24.2607 15.8466 24.0504 16.4432C23.8459 17.0398 23.7436 17.7188 23.7436 18.4801C23.7436 19.2415 23.8459 19.9205 24.0504 20.517C24.2607 21.1136 24.5703 21.5852 24.9794 21.9318C25.3942 22.2727 25.9055 22.4432 26.5135 22.4432ZM41.5561 25H35.3686V7.54545H41.6072C43.3629 7.54545 44.8743 7.89489 46.1413 8.59375C47.4084 9.28693 48.3828 10.2841 49.0646 11.5852C49.7521 12.8864 50.0959 14.4432 50.0959 16.2557C50.0959 18.0739 49.7521 19.6364 49.0646 20.9432C48.3828 22.25 47.4027 23.2528 46.1243 23.9517C44.8516 24.6506 43.3288 25 41.5561 25ZM39.0589 21.8381H41.4027C42.4936 21.8381 43.4112 21.6449 44.1555 21.2585C44.9055 20.8665 45.468 20.2614 45.843 19.4432C46.2237 18.6193 46.4141 17.5568 46.4141 16.2557C46.4141 14.9659 46.2237 13.9119 45.843 13.0938C45.468 12.2756 44.9084 11.6733 44.1641 11.2869C43.4197 10.9006 42.5021 10.7074 41.4112 10.7074H39.0589V21.8381ZM58.6761 25.2557C57.3523 25.2557 56.2074 24.9744 55.2415 24.4119C54.2813 23.8437 53.5398 23.054 53.017 22.0426C52.4943 21.0256 52.233 19.8466 52.233 18.5057C52.233 17.1534 52.4943 15.9716 53.017 14.9602C53.5398 13.9432 54.2813 13.1534 55.2415 12.5909C56.2074 12.0227 57.3523 11.7386 58.6761 11.7386C60 11.7386 61.142 12.0227 62.1023 12.5909C63.0682 13.1534 63.8125 13.9432 64.3352 14.9602C64.858 15.9716 65.1193 17.1534 65.1193 18.5057C65.1193 19.8466 64.858 21.0256 64.3352 22.0426C63.8125 23.054 63.0682 23.8437 62.1023 24.4119C61.142 24.9744 60 25.2557 58.6761 25.2557ZM58.6932 22.4432C59.2955 22.4432 59.7983 22.2727 60.2017 21.9318C60.6051 21.5852 60.9091 21.1136 61.1136 20.517C61.3239 19.9205 61.429 19.2415 61.429 18.4801C61.429 17.7188 61.3239 17.0398 61.1136 16.4432C60.9091 15.8466 60.6051 15.375 60.2017 15.0284C59.7983 14.6818 59.2955 14.5085 58.6932 14.5085C58.0852 14.5085 57.5739 14.6818 57.1591 15.0284C56.75 15.375 56.4403 15.8466 56.2301 16.4432C56.0256 17.0398 55.9233 17.7188 55.9233 18.4801C55.9233 19.2415 56.0256 19.9205 56.2301 20.517C56.4403 21.1136 56.75 21.5852 57.1591 21.9318C57.5739 22.2727 58.0852 22.4432 58.6932 22.4432Z" fill="black"/>
</svg>
